#!OML:ASF F:\VICON\USERDATA\INSTALL\rory3\rory3.ASF
:FULLY-SPECIFIED
:DEGREES
433
root -8.91806 17.7654 11.1265 -55.9654 -93.3273 53.7796
lowerback 11.0896 2.43734 3.67392
upperback 0.829495 3.68751 0.703093
thorax -5.15859 1.72201 -1.88761
lowerneck -21.2333 -5.92592 -11.495
upperneck 27.5634 -6.97965 6.98152
head 13.5408 -3.453 3.40739
rclavicle -2.03071e-014 -1.23246e-014
rhumerus -29.8353 -9.25972 -81.4813
rradius 33.8462
rwrist 3.53601
rhand -16.0761 10.4094
rfingers 7.12502
rthumb 10.1268 -19.3269
lclavicle -2.03071e-014 -1.23246e-014
lhumerus -36.0577 7.3868 82.1636
lradius 30.5875
lwrist -6.03376
lhand -17.1539 25.4385
lfingers 7.12502
lthumb 9.08681 55.2228
rfemur 5.2913 -1.38794 28.0833
rtibia 19.7248
rfoot -17.8601 0.172886
rtoes 11.9986
lfemur -20.2916 -5.36414 -13.8806
ltibia 13.653
lfoot -4.76595 5.21249
ltoes -16.6831
434
root -9.04025 17.7525 11.1332 -55.1071 -93.3857 53.0711
lowerback 10.9738 2.43917 3.65219
upperback 0.775897 3.68588 0.709746
thorax -5.15229 1.72217 -1.86393
lowerneck -21.2505 -5.93716 -11.4998
upperneck 27.5472 -6.99704 7.00138
head 13.5407 -3.45763 3.41233
rclavicle -1.06598e-014 1.40143e-014
rhumerus -29.8197 -9.42238 -81.4225
rradius 33.6989
rwrist 3.76745
rhand -16.0553 10.4223
rfingers 7.12502
rthumb 10.1468 -19.313
lclavicle -1.06598e-014 1.40143e-014
lhumerus -36.021 7.34126 82.2785
lradius 30.603
lwrist -6.09064
lhand -18.0538 25.6511
lfingers 7.12502
lthumb 8.21838 55.4712
rfemur 5.67942 -1.27165 28.0759
rtibia 19.5468
rfoot -18.012 0.246835
rtoes 12.7443
lfemur -20.3358 -6.22923 -13.5739
ltibia 12.3226
lfoot -5.10969 5.8418
ltoes -17.1841
435
root -9.16368 17.737 11.1387 -55.1004 -93.3763 53.2216
lowerback 10.8482 2.40648 3.57487
upperback 0.72044 3.63183 0.723041
thorax -5.14918 1.69784 -1.79437
lowerneck -21.2447 -5.94376 -11.5481
upperneck 27.477 -6.97557 6.98177
head 13.5091 -3.45426 3.41532
rclavicle -2.22452e-014 6.75868e-015
rhumerus -29.7932 -9.55434 -81.3789
rradius 33.5364
rwrist 4.04757
rhand -15.9335 10.3157
rfingers 7.12502
rthumb 10.2643 -19.4138
lclavicle -2.22452e-014 6.75868e-015
lhumerus -35.9777 7.38106 82.3346
lradius 30.6026
lwrist -6.29162
lhand -18.5805 26.081
lfingers 7.12502
lthumb 7.7101 55.9204
rfemur 6.10628 -1.1021 28.0877
rtibia 19.3136
rfoot -18.0883 0.139929
rtoes 12.9604
lfemur -20.4957 -6.31361 -13.5261
ltibia 11.4346
lfoot -5.43044 5.81945
ltoes -19.397
436
root -9.28657 17.7224 11.1476 -54.6551 -93.4298 52.9523
lowerback 10.7316 2.40557 3.54018
upperback 0.629982 3.62971 0.787719
thorax -5.18577 1.69738 -1.7041
lowerneck -21.2322 -5.93425 -11.6222
upperneck 27.4851 -6.90262 6.87899
head 13.5007 -3.44439 3.40045
rclavicle -2.91095e-014 -1.66979e-014
rhumerus -29.8773 -9.5192 -81.2821
rradius 33.4523
rwrist 4.0063
rhand -15.789 10.2565
rfingers 7.12502
rthumb 10.4037 -19.4661
lclavicle -2.91095e-014 -1.66979e-014
lhumerus -35.9935 7.09588 82.6362
lradius 30.579
lwrist -6.04389
lhand -18.004 25.8064
lfingers 7.12502
lthumb 8.26649 55.6247
rfemur 6.55475 -1.02194 28.1002
rtibia 18.9991
rfoot -18.1189 0.0796276
rtoes 12.1998
lfemur -20.7199 -5.8568 -13.6455
ltibia 10.9934
lfoot -5.34603 5.5002
ltoes -23.2502
437
root -9.40721 17.7123 11.1581 -55.1845 -93.6489 53.6803
lowerback 10.5884 2.42462 3.73873
upperback 0.566841 3.67793 0.835036
thorax -5.16047 1.7174 -1.76685
lowerneck -21.3197 -5.9364 -11.5625
upperneck 27.5147 -6.9043 6.83921
head 13.5271 -3.44228 3.37353
rclavicle -5.15225e-014 5.96354e-016
rhumerus -29.9368 -9.6866 -81.1963
rradius 33.3457
rwrist 4.11582
rhand -15.623 10.4127
rfingers 7.12502
rthumb 10.5638 -19.3018
lclavicle -5.15225e-014 5.96354e-016
lhumerus -35.931 6.93675 82.8065
lradius 30.567
lwrist -6.03951
lhand -15.9914 24.554
lfingers 7.12502
lthumb 10.2085 54.2863
rfemur 6.96174 -0.837521 28.3273
rtibia 18.7172
rfoot -18.133 -0.150232
rtoes 10.8744
lfemur -20.8826 -5.40925 -13.5683
ltibia 10.7635
lfoot -5.12105 5.08401
ltoes -24.0574
438
root -9.52524 17.7061 11.1666 -54.953 -93.6182 53.5016
lowerback 10.6203 2.4029 3.72221
upperback 0.543762 3.64631 0.7608
thorax -5.20039 1.70064 -1.83296
lowerneck -21.4486 -5.93261 -11.4002
upperneck 27.5797 -6.95743 6.87003
head 13.5808 -3.4424 3.34818
rclavicle -3.57812e-015 9.93923e-017
rhumerus -29.9908 -9.91321 -81.2495
rradius 33.2623
rwrist 3.74832
rhand -15.8299 10.6027
rfingers 7.12502
rthumb 10.3643 -19.1219
lclavicle -3.57812e-015 9.93923e-017
lhumerus -35.8647 6.59094 82.9214
lradius 30.6316
lwrist -5.78335
lhand -16.8869 25.5485
lfingers 7.12502
lthumb 9.34445 55.3214
rfemur 7.45894 -0.572357 28.3547
rtibia 18.4912
rfoot -18.1328 -0.64248
rtoes 9.41477
lfemur -20.9199 -4.65081 -13.8742
ltibia 10.7978
lfoot -4.76351 3.97494
ltoes -22.114
439
root -9.64381 17.7008 11.1733 -54.3403 -93.2911 52.8322
lowerback 10.7594 2.34174 3.39516
upperback 0.55122 3.52801 0.684684
thorax -5.29154 1.64757 -1.7199
lowerneck -21.5931 -5.93183 -11.3169
upperneck 27.6374 -6.95281 6.81295
head 13.6283 -3.43642 3.31124
rclavicle -1.21383e-014 -5.26779e-015
rhumerus -30.03 -9.60323 -81.4389
rradius 33.237
rwrist 2.30358
rhand -16.8723 10.5782
rfingers 7.12502
rthumb 9.3586 -19.194
lclavicle -1.21383e-014 -5.26779e-015
lhumerus -35.805 6.46392 83.0824
lradius 30.6454
lwrist -5.72832
lhand -17.0447 25.5826
lfingers 7.12502
lthumb 9.1922 55.3622
rfemur 8.03574 -0.278062 28.1184
rtibia 18.3054
rfoot -18.1728 -1.09872
rtoes 9.46252
lfemur -20.9525 -4.09097 -14.4918
ltibia 11.164
lfoot -4.03389 2.84469
ltoes -18.8136
440
root -9.76537 17.6894 11.1833 -54.9142 -93.1661 53.3517
lowerback 10.8741 2.29928 3.33605
upperback 0.551113 3.46661 0.639266
thorax -5.35957 1.61666 -1.73111
lowerneck -21.5561 -5.93737 -11.2567
upperneck 27.5246 -6.96331 6.77236
head 13.5697 -3.43809 3.28121
rclavicle -2.05183e-014 -5.86415e-015
rhumerus -30.1724 -9.56332 -81.5426
rradius 33.3416
rwrist 1.68355
rhand -17.3551 10.1848
rfingers 7.12502
rthumb 8.8927 -19.6078
lclavicle -2.05183e-014 -5.86415e-015
lhumerus -35.7525 6.70078 83.108
lradius 30.579
lwrist -6.24655
lhand -19.6325 25.8899
lfingers 7.12502
lthumb 6.69457 55.7641
rfemur 8.52392 -0.21084 28.0265
rtibia 18.281
rfoot -18.1419 -1.26764
rtoes 9.38751
lfemur -20.9201 -3.83288 -14.8508
ltibia 11.5945
lfoot -3.00289 2.27532
ltoes -16.2002
441
root -9.8889 17.6748 11.1923 -53.6955 -93.2171 52.0636
lowerback 10.9489 2.26938 3.25211
upperback 0.594797 3.41822 0.661329
thorax -5.36407 1.59484 -1.65647
lowerneck -21.6549 -5.90874 -11.2531
upperneck 27.501 -6.91544 6.80128
head 13.5759 -3.40974 3.29983
rclavicle -7.23079e-015 -4.87022e-015
rhumerus -30.2757 -9.55871 -81.5852
rradius 33.4915
rwrist 1.74919
rhand -17.2331 9.55033
rfingers 7.12502
rthumb 9.01043 -20.2372
lclavicle -7.23079e-015 -4.87022e-015
lhumerus -35.6486 7.12851 83.0793
lradius 30.5176
lwrist -6.53656
lhand -16.0049 25.2936
lfingers 7.12502
lthumb 10.1954 55.0265
rfemur 8.94487 -0.327954 27.9875
rtibia 18.4262
rfoot -18.0907 -1.46474
rtoes 7.34108
lfemur -20.7725 -3.60007 -15.0798
ltibia 12.0523
lfoot -2.29523 2.00183
ltoes -14.9084
442
root -10.0154 17.6586 11.2025 -50.8313 -93.3239 49.0451
lowerback 11.0784 2.28266 3.08226
upperback 0.673241 3.4188 0.726742
thorax -5.36776 1.59939 -1.49736
lowerneck -21.8278 -5.88296 -11.2869
upperneck 27.5668 -6.8563 6.83066
head 13.6357 -3.38056 3.32785
rclavicle -4.22417e-015 -1.07344e-014
rhumerus -30.3785 -9.73863 -81.3887
rradius 33.5015
rwrist 2.47028
rhand -16.6646 9.34638
rfingers 7.12502
rthumb 9.55893 -20.4168
lclavicle -4.22417e-015 -1.07344e-014
lhumerus -35.53 7.32304 83.1801
lradius 30.4609
lwrist -6.53808
lhand -14.9808 25.1058
lfingers 7.12502
lthumb 11.1832 54.7877
rfemur 9.44819 -0.219444 27.9764
rtibia 18.6695
rfoot -18.0685 -1.83234
rtoes 5.3017
lfemur -20.5202 -3.66734 -15.2108
ltibia 12.6726
lfoot -2.12597 1.83808
ltoes -13.6763
